<svg id="Capa_1" data-name="Capa 1" xmlns="http://www.w3.org/2000/svg" viewBox="0 0 302.5 302.5"><title>Artboard 1</title><path d="M163.8,222.9a70.3,70.3,0,1,0-70.3-70.3A70.4,70.4,0,0,0,163.8,222.9Z" fill="#fff"/><path d="M163.8,241.8a89.1,89.1,0,1,0-89.1-89.1A89.11,89.11,0,0,0,163.8,241.8Zm0-164.6a75.5,75.5,0,1,1-75.5,75.5A75.63,75.63,0,0,1,163.8,77.2Z" fill="#fff"/><path d="M302.5,250.1l-5.2-200a7.81,7.81,0,0,0-7.8-7.8,8.33,8.33,0,0,0-3.2.7v-.1a5.19,5.19,0,0,0-.5.3,9.51,9.51,0,0,0-2,1.5c-5.7,4.7-23.9,23.8-25.4,49.6-2.3,39.4,16.8,55.3,23.3,69.9L276.5,250c0,4.3,8.7,7.8,13,7.8S302.5,254.4,302.5,250.1Z" fill="#fff"/><path d="M13.6,128.2l13.5,6.7a19.64,19.64,0,0,0,5,1.7l-5.2,117c0,3.6,8.7,6.5,13,6.5s13-2.9,13-6.5L47.7,136a26.14,26.14,0,0,0,5.1-2.2l10-6.1c7.2-4.4,12.6-14,12.6-22.5V52.9a7.8,7.8,0,0,0-15.6,0v47.2H55.5V52.9a7.8,7.8,0,1,0-15.6,0v47.2H35.6V52.9a7.8,7.8,0,1,0-15.6,0v47.2H15.7V54.6a7.8,7.8,0,0,0-15.6,0v51.6C0,114.9,5.9,124.3,13.6,128.2Z" fill="#fff"/></svg>