<svg xmlns="http://www.w3.org/2000/svg" width="40" height="54" viewBox="0 0 40 54">
  <defs>
    <style>
      .cls-1 {
        fill: #fff;
        fill-rule: evenodd;
        opacity: 0.5;
      }
    </style>
  </defs>
  <path id="icons_icon-play.svg" data-name="icons/icon-play.svg" class="cls-1" d="M220,2499a8.962,8.962,0,0,1-3.36,6.99l0.024,0.03-22.222,18.01-0.025-.04a8.712,8.712,0,0,1-5.528,2.01,8.946,8.946,0,0,1-8.889-9v-36a8.946,8.946,0,0,1,8.889-9,8.76,8.76,0,0,1,5.528,2l0.025-.03,22.222,18-0.024.03A8.982,8.982,0,0,1,220,2499Z" transform="translate(-180 -2472)"/>
</svg>
