<svg xmlns="http://www.w3.org/2000/svg" width="9.031" height="6.24" viewBox="0 0 9.031 6.24">
  <defs>
    <style>
      .cls-1 {
        fill: #d5d5d5;
        fill-rule: evenodd;
      }
    </style>
  </defs>
  <path id="icons_icon-back.svg" data-name="icons/icon-back.svg" class="cls-1" d="M129.172,3067h-3.95v-1.12a1.018,1.018,0,0,0-.293-0.71,1.192,1.192,0,0,0-.325-0.22,1.02,1.02,0,0,0-1.089.22l-2.122,2.12a1.008,1.008,0,0,0,0,1.42l2.122,2.12a1.02,1.02,0,0,0,1.089.22,1.008,1.008,0,0,0,.618-0.93V3069h3.95A1,1,0,0,0,129.172,3067Z" transform="translate(-121.125 -3064.88)"/>
</svg>
