<svg xmlns="http://www.w3.org/2000/svg" width="9" height="14" viewBox="0 0 9 14">
  <defs>
    <style>
      .cls-1 {
        fill: #4d4d4d;
        fill-rule: evenodd;
        opacity: 0.3;
      }
    </style>
  </defs>
  <path id="icons_icon-next.svg" data-name="icons/icon-next.svg" class="cls-1" d="M207.514,1508.6h0a1.472,1.472,0,0,1-1.011.4,1.5,1.5,0,0,1-1.5-1.5,1.475,1.475,0,0,1,.489-1.1l0-.01,4.794-4.39-4.794-4.4h0a1.475,1.475,0,0,1-.489-1.1,1.5,1.5,0,0,1,1.5-1.5,1.472,1.472,0,0,1,1.011.4l0-.01,6,5.5a1.511,1.511,0,0,1,0,2.22Z" transform="translate(-205 -1495)"/>
</svg>
